<?xml version="1.0" standalone="no"?>
<!DOCTYPE svg PUBLIC "-//W3C//DTD SVG 20010904//EN"
 "http://www.w3.org/TR/2001/REC-SVG-20010904/DTD/svg10.dtd">
<svg version="1.0" xmlns="http://www.w3.org/2000/svg"
 width="350.000000pt" height="350.000000pt" viewBox="0 0 350.000000 350.000000"
 preserveAspectRatio="xMidYMid meet">
<metadata>
Created by potrace 1.11, written by Peter Selinger 2001-2013
</metadata>
<g transform="translate(0.000000,350.000000) scale(0.100000,-0.100000)"
fill="#000000" stroke="none">
<path d="M1990 3488 c-69 -12 -101 -29 -114 -60 -8 -19 -55 -57 -144 -117
-202 -138 -324 -242 -438 -372 -127 -147 -195 -237 -271 -358 -49 -78 -52 -85
-39 -110 21 -39 47 -66 83 -85 26 -13 37 -14 58 -4 17 7 29 8 33 2 6 -8 56
-34 67 -34 12 0 62 59 73 85 7 17 23 35 35 40 13 6 27 26 35 51 7 24 21 44 30
46 13 4 23 28 36 83 20 83 37 86 30 6 -12 -158 -43 -320 -81 -426 -68 -192
-113 -328 -110 -331 2 -3 12 17 21 43 54 149 71 173 62 88 -3 -33 -8 -70 -10
-83 -3 -13 -6 -43 -7 -68 -2 -24 -5 -44 -8 -44 -12 0 -22 -338 -10 -346 5 -3
9 -10 9 -15 0 -6 -4 -8 -9 -5 -5 3 -15 -9 -22 -27 l-12 -32 -8 55 c-4 30 -6
66 -3 80 15 75 16 95 7 85 -14 -13 -39 -119 -68 -286 -22 -126 -26 -244 -11
-329 22 -119 42 -182 67 -214 18 -23 20 -31 9 -56 -7 -16 -18 -35 -26 -41 -8
-6 -14 -23 -14 -36 0 -16 -14 -39 -39 -64 -26 -24 -44 -54 -51 -81 -7 -24 -18
-53 -26 -65 -32 -51 -64 -113 -58 -113 4 0 16 8 27 17 13 12 4 -11 -23 -62
-24 -44 -47 -84 -52 -90 -4 -5 -8 -13 -8 -18 0 -5 49 65 110 156 77 116 121
171 149 190 26 17 41 36 46 56 3 16 18 37 33 47 15 9 55 46 90 82 47 49 62 60
62 45 0 -11 3 -22 6 -26 11 -10 52 15 63 39 5 13 32 34 58 48 63 32 77 49 108
130 41 110 136 220 283 328 112 84 123 95 133 134 9 36 17 45 48 57 20 8 45
25 56 37 l20 23 -35 -7 c-19 -3 -53 -18 -75 -32 -30 -19 -22 -8 37 48 84 80
97 100 102 155 2 28 11 44 42 69 28 24 41 30 47 21 6 -8 7 -7 4 5 -3 9 3 24
13 33 11 10 17 22 14 27 -3 5 12 31 34 57 76 90 200 289 212 342 15 62 9 139
-14 174 -16 24 -22 26 -64 21 -26 -3 -78 -8 -117 -12 -38 -3 -114 -14 -169
-25 -92 -19 -130 -34 -255 -104 -46 -26 -81 -32 -81 -15 0 5 13 16 29 22 41
18 217 185 232 220 6 15 18 28 25 28 25 0 144 130 144 158 0 6 4 11 9 10 11
-4 111 99 111 114 0 6 15 28 34 49 37 40 56 91 56 150 0 20 7 56 15 79 33 94
9 128 -133 190 -85 38 -99 49 -76 67 14 10 13 13 -10 28 -30 20 -99 42 -158
50 -24 4 -72 13 -108 21 -68 14 -77 15 -150 2z m89 -57 c11 -7 8 -11 -10 -16
-25 -8 -89 -9 -96 -1 -4 3 42 17 87 25 3 0 11 -3 19 -8z m-154 -80 c3 -5 -5
-13 -17 -16 -12 -4 -54 -23 -94 -41 -39 -19 -75 -34 -79 -34 -14 0 20 33 70
66 49 33 107 45 120 25z m231 -216 c4 -8 14 -15 24 -15 28 0 50 -11 50 -25 0
-19 -117 -244 -147 -283 -40 -53 -133 -214 -133 -231 0 -20 -132 -241 -158
-264 -20 -18 -21 -18 -31 1 -16 31 -8 102 13 118 15 10 16 16 7 27 -6 8 -11
25 -10 38 2 113 8 184 15 182 50 -9 74 -5 74 10 0 28 -22 37 -51 21 -28 -14
-28 -14 -35 23 -3 21 -26 69 -51 106 -42 63 -44 70 -33 98 7 16 18 29 25 29 8
0 44 16 81 35 37 19 76 35 86 35 11 0 50 18 87 40 68 40 87 48 76 30 -3 -5 7
-5 25 1 33 12 41 24 10 16 -27 -7 -25 1 3 13 34 14 67 12 73 -5z m-246 -55 c0
-5 -4 -10 -9 -10 -6 0 -13 5 -16 10 -3 6 1 10 9 10 9 0 16 -4 16 -10z m-510
-459 c0 -6 -4 -13 -10 -16 -5 -3 -10 1 -10 9 0 9 5 16 10 16 6 0 10 -4 10 -9z
m356 -27 c-3 -9 -6 -18 -6 -20 0 -2 -4 -4 -9 -4 -5 0 -7 9 -4 20 3 11 10 20
15 20 6 0 7 -7 4 -16z m230 -30 c-4 -9 -9 -15 -11 -12 -3 3 -3 13 1 22 4 9 9
15 11 12 3 -3 3 -13 -1 -22z m-236 -21 c0 -10 -5 -25 -10 -33 -7 -11 -10 -7
-10 18 0 17 5 32 10 32 6 0 10 -8 10 -17z m20 -263 c0 -8 -29 -35 -31 -29 -7
34 -4 46 13 41 10 -2 18 -8 18 -12z m152 -38 c-8 -13 -33 -32 -56 -43 l-41
-20 36 33 c20 18 39 43 43 55 6 18 10 20 20 10 11 -10 11 -16 -2 -35z m-128
23 c-4 -8 -10 -12 -15 -9 -11 6 -2 24 11 24 5 0 7 -7 4 -15z m-44 -40 c0 -8
-2 -15 -4 -15 -2 0 -6 7 -10 15 -3 8 -1 15 4 15 6 0 10 -7 10 -15z m72 -23
c-28 -38 -52 -58 -52 -43 0 13 62 82 68 76 3 -2 -5 -17 -16 -33z m-445 -64
c-3 -8 -6 -5 -6 6 -1 11 2 17 5 13 3 -3 4 -12 1 -19z m433 8 c0 -3 -4 -8 -10
-11 -5 -3 -10 -1 -10 4 0 6 5 11 10 11 6 0 10 -2 10 -4z m270 -70 c0 -13 -9
-49 -21 -82 -11 -32 -22 -70 -23 -84 -2 -14 -4 -30 -4 -37 -1 -6 -14 -26 -29
-43 -24 -30 -25 -33 -9 -42 16 -9 14 -13 -13 -39 -17 -16 -31 -32 -31 -35 0
-14 -78 -112 -126 -159 -48 -47 -72 -83 -94 -140 -14 -37 -4 -30 26 18 15 23
38 54 53 68 38 37 91 72 91 60 0 -9 -73 -99 -90 -111 -12 -8 -31 -49 -45 -96
l-14 -46 21 19 c21 18 21 18 8 -7 -18 -34 -110 -121 -121 -114 -5 3 -17 0 -26
-5 -15 -9 -14 -10 10 -11 36 0 29 -10 -40 -61 -43 -32 -52 -44 -42 -51 11 -8
10 -9 -3 -5 -19 7 -43 -17 -33 -33 3 -5 -1 -10 -10 -10 -50 0 -2 97 103 208
46 49 62 73 60 90 -3 21 -10 14 -55 -45 -121 -159 -144 -154 -98 22 8 33 15
71 15 85 0 28 48 180 61 194 11 13 3 -27 -11 -53 -6 -12 -9 -21 -6 -21 7 0 58
91 117 210 59 120 82 146 233 275 32 28 75 64 95 82 39 34 51 34 51 -1z m-16
-264 c-10 -15 -19 -21 -21 -15 -5 15 30 65 35 52 2 -5 -4 -22 -14 -37z m-361
-37 c-3 -9 -8 -14 -10 -11 -3 3 -2 9 2 15 9 16 15 13 8 -4z m-83 -120 c-7 -9
-15 -13 -18 -10 -3 2 1 11 8 20 7 9 15 13 18 10 3 -2 -1 -11 -8 -20z m340 15
c0 -5 -2 -10 -4 -10 -3 0 -8 5 -11 10 -3 6 -1 10 4 10 6 0 11 -4 11 -10z m7
-60 c3 -24 -12 -27 -21 -4 -7 17 2 39 12 29 3 -3 7 -14 9 -25z m-427 -20 c16
-10 13 -16 -10 -22 -15 -3 -20 2 -20 22 0 12 10 13 30 0z m-200 -60 c0 -5 -5
-10 -11 -10 -5 0 -7 5 -4 10 3 6 8 10 11 10 2 0 4 -4 4 -10z m181 -13 c-5 -7
-16 -34 -24 -62 -15 -48 -21 -47 -17 5 3 35 29 82 41 74 6 -4 7 -10 0 -17z
m-78 -117 c-3 -12 -8 -19 -11 -16 -5 6 5 36 12 36 2 0 2 -9 -1 -20z m670 14
c11 -11 -3 -24 -18 -18 -8 4 -12 10 -9 15 6 11 18 12 27 3z m-871 -36 c-7 -7
-12 -8 -12 -2 0 14 12 26 19 19 2 -3 -1 -11 -7 -17z m792 -3 c3 -8 1 -15 -4
-15 -6 0 -10 7 -10 15 0 8 2 15 4 15 2 0 6 -7 10 -15z m-737 -27 c-3 -7 -5 -2
-5 12 0 14 2 19 5 13 2 -7 2 -19 0 -25z m189 -11 c-2 -12 -7 -40 -11 -62 -10
-61 -15 -75 -27 -75 -7 0 -8 14 -3 43 4 23 9 51 10 62 3 36 16 65 26 60 5 -4
7 -16 5 -28z m-226 -8 c0 -17 -4 -28 -10 -24 -5 3 -10 17 -10 31 0 13 5 24 10
24 6 0 10 -14 10 -31z m764 -3 c-10 -8 -21 -12 -24 -10 -5 6 21 24 34 24 6 0
1 -6 -10 -14z m-256 -65 c-13 -15 -25 -27 -27 -25 -4 4 39 54 47 54 2 0 -7
-13 -20 -29z m-62 -76 c-10 -7 -15 -18 -12 -23 8 -13 -17 -22 -33 -12 -9 5 -5
13 15 29 14 11 32 21 38 21 6 0 3 -7 -8 -15z m-468 -30 c-3 -3 -9 2 -12 12 -6
14 -5 15 5 6 7 -7 10 -15 7 -18z m229 -12 c-3 -10 -5 -4 -5 12 0 17 2 24 5 18
2 -7 2 -21 0 -30z m-47 -77 c0 -17 -14 -29 -23 -20 -8 8 3 34 14 34 5 0 9 -6
9 -14z m167 -23 c-9 -9 -20 -13 -24 -9 -4 4 -1 11 7 16 25 16 35 11 17 -7z
m-142 -23 c3 -5 1 -10 -4 -10 -6 0 -11 5 -11 10 0 6 2 10 4 10 3 0 8 -4 11
-10z m30 -10 c3 -5 1 -10 -4 -10 -6 0 -11 5 -11 10 0 6 2 10 4 10 3 0 8 -4 11
-10z m-58 -42 c-3 -7 -5 -2 -5 12 0 14 2 19 5 13 2 -7 2 -19 0 -25z m278 -68
c-10 -11 -25 -20 -33 -20 -12 0 -12 4 3 20 10 11 25 20 33 20 12 0 12 -4 -3
-20z m-134 -43 l-24 -22 19 27 c10 14 21 24 23 22 3 -3 -6 -15 -18 -27z"/>
<path d="M1791 2524 c0 -11 3 -14 6 -6 3 7 2 16 -1 19 -3 4 -6 -2 -5 -13z"/>
<path d="M1811 2386 c-7 -8 -8 -17 -3 -20 6 -3 13 1 16 10 9 23 2 28 -13 10z"/>
<path d="M2000 1859 c0 -5 5 -7 10 -4 6 3 10 8 10 11 0 2 -4 4 -10 4 -5 0 -10
-5 -10 -11z"/>
<path d="M1715 1290 c-3 -5 1 -10 9 -10 9 0 16 5 16 10 0 6 -4 10 -9 10 -6 0
-13 -4 -16 -10z"/>
<path d="M1635 1230 c-3 -5 -2 -10 4 -10 5 0 13 5 16 10 3 6 2 10 -4 10 -5 0
-13 -4 -16 -10z"/>
<path d="M1390 2450 c-8 -5 -12 -12 -9 -15 4 -3 12 1 19 10 14 17 11 19 -10 5z"/>
<path d="M1230 1775 c0 -8 2 -15 4 -15 2 0 6 7 10 15 3 8 1 15 -4 15 -6 0 -10
-7 -10 -15z"/>
<path d="M2357 1753 c-4 -3 -7 -11 -7 -17 0 -6 5 -5 12 2 6 6 9 14 7 17 -3 3
-9 2 -12 -2z"/>
<path d="M2286 1578 c3 -5 10 -6 15 -3 13 9 11 12 -6 12 -8 0 -12 -4 -9 -9z"/>
<path d="M2175 1440 c-3 -5 -1 -10 4 -10 6 0 11 5 11 10 0 6 -2 10 -4 10 -3 0
-8 -4 -11 -10z"/>
<path d="M2060 1305 c-7 -9 -10 -18 -7 -21 5 -6 67 23 67 31 0 12 -49 3 -60
-10z"/>
<path d="M1190 895 c0 -2 9 -19 20 -37 23 -39 27 -30 5 12 -14 27 -25 38 -25
25z"/>
<path d="M1193 655 c-8 -9 -9 -16 -3 -20 6 -3 13 1 16 10 9 21 2 26 -13 10z"/>
<path d="M1112 610 c-23 -29 -39 -75 -22 -65 12 7 60 95 52 94 -4 0 -17 -13
-30 -29z"/>
<path d="M1080 609 c0 -5 5 -7 10 -4 6 3 10 8 10 11 0 2 -4 4 -10 4 -5 0 -10
-5 -10 -11z"/>
<path d="M1050 570 c-6 -11 -7 -20 -3 -20 5 0 14 9 21 20 7 11 8 20 2 20 -5 0
-14 -9 -20 -20z"/>
<path d="M1017 533 c-4 -3 -7 -11 -7 -17 0 -6 5 -5 12 2 6 6 9 14 7 17 -3 3
-9 2 -12 -2z"/>
<path d="M1109 508 c-9 -7 -25 -26 -35 -42 l-18 -29 33 17 c32 17 46 36 39 56
-2 7 -9 6 -19 -2z"/>
<path d="M973 473 c-3 -10 -8 -22 -10 -28 -3 -5 3 -1 11 9 16 20 21 36 11 36
-3 0 -8 -8 -12 -17z"/>
<path d="M978 433 c-28 -33 -33 -47 -14 -40 13 5 17 3 13 -6 -3 -8 3 -13 14
-14 17 -2 18 0 4 13 -18 18 -18 20 -5 45 13 24 8 25 -12 2z"/>
<path d="M1026 415 c-11 -8 -15 -15 -9 -15 6 0 16 7 23 15 16 19 11 19 -14 0z"/>
<path d="M906 363 c-14 -20 -24 -39 -21 -41 6 -6 54 51 55 66 0 20 -8 14 -34
-25z"/>
<path d="M1003 280 c-17 -30 -35 -68 -39 -85 -7 -30 -7 -30 14 -12 24 22 64
112 60 135 -2 11 -15 -2 -35 -38z"/>
<path d="M943 298 c-19 -25 -24 -38 -14 -38 11 0 35 39 28 46 -2 3 -9 -1 -14
-8z"/>
<path d="M890 247 c0 -1 -4 -17 -9 -35 -12 -40 3 -33 17 8 7 18 7 30 1 30 -5
0 -9 -1 -9 -3z"/>
<path d="M837 123 c-4 -3 -7 -11 -7 -17 0 -6 5 -5 12 2 6 6 9 14 7 17 -3 3 -9
2 -12 -2z"/>
<path d="M940 80 c0 -5 5 -10 10 -10 6 0 10 5 10 10 0 6 -4 10 -10 10 -5 0
-10 -4 -10 -10z"/>
</g>
</svg>
